<svg xmlns="http://www.w3.org/2000/svg" viewBox="0 0 317.39 322.32"><defs><style>.cls-1{fill:#3b4956}</style></defs><g id="Layer_2" data-name="Layer 2"><g id="Layer_2-2" data-name="Layer 2"><path class="cls-1" d="M0 35.16L188.37 0v322.32L0 282.98V35.16zm198.42 32.65v64.47l23.44 13.39 95.44-64.46s.85-4.12-2.65-8.76-11.56-4.64-11.56-4.64z"/><path class="cls-1" d="M317.3 106.74L222.7 170l-24.28-16.74v87.91h100.65s9.58-.84 13.95-4.93 4.28-12.47 4.28-12.47z"/><path d="M94.19 104.81c16.41 0 43.11 10 43.11 56.35S109.4 216 94.19 216s-41.45-15.87-41.45-55.33 24.38-55.86 41.45-55.86z" fill="#fff"/><path class="cls-1" d="M95 124.58c12.24 0 22.51 14.15 22.51 36.09s-10.74 34.56-23.34 34.56-21.35-12.59-21.35-34.56 9.97-36.09 22.18-36.09z"/></g></g></svg>